<?xml version="1.0" encoding="UTF-8" standalone="no"?>
<!-- Generator: Adobe Illustrator 13.0.1, SVG Export Plug-In . SVG Version: 6.00 Build 14948)  -->

<svg
   xmlns:dc="http://purl.org/dc/elements/1.1/"
   xmlns:cc="http://creativecommons.org/ns#"
   xmlns:rdf="http://www.w3.org/1999/02/22-rdf-syntax-ns#"
   xmlns:svg="http://www.w3.org/2000/svg"
   xmlns="http://www.w3.org/2000/svg"
   xmlns:sodipodi="http://sodipodi.sourceforge.net/DTD/sodipodi-0.dtd"
   xmlns:inkscape="http://www.inkscape.org/namespaces/inkscape"
   version="1.1"
   id="Layer_1"
   x="0px"
   y="0px"
   width="1000"
   height="1000"
   viewBox="5.7 51.712 999.99997 999.99997"
   enable-background="new 5.7 51.712 219.6 201.6"
   xml:space="preserve"
   inkscape:version="0.48.4 r9939"
   sodipodi:docname="33.svg"><title
   id="title3762">Exclamation mark</title><metadata
   id="metadata3009"><rdf:RDF><cc:Work
       rdf:about=""><dc:format>image/svg+xml</dc:format><dc:type
         rdf:resource="http://purl.org/dc/dcmitype/StillImage" /><dc:title>Exclamation mark</dc:title></cc:Work></rdf:RDF></metadata><defs
   id="defs3007" /><sodipodi:namedview
   pagecolor="#ffffff"
   bordercolor="#666666"
   borderopacity="1"
   objecttolerance="10"
   gridtolerance="10"
   guidetolerance="10"
   inkscape:pageopacity="0"
   inkscape:pageshadow="2"
   inkscape:window-width="1366"
   inkscape:window-height="706"
   id="namedview3005"
   showgrid="false"
   inkscape:zoom="0.32656155"
   inkscape:cx="500"
   inkscape:cy="535.59943"
   inkscape:window-x="-8"
   inkscape:window-y="-8"
   inkscape:window-maximized="1"
   inkscape:current-layer="Layer_1"
   inkscape:snap-bbox="false" />
<path
   d="m 997.69997,215.90247 c 0,-86.26105 -64.19752,-156.19044 -143.388,-156.19044 h -697.224 C 77.897482,59.71203 13.7,129.64142 13.7,215.90247 v 671.61906 c 0,86.26105 64.197482,156.19047 143.38797,156.19047 h 697.224 c 79.19048,0 143.388,-69.92942 143.388,-156.19047 V 215.90247 z"
   id="path2999"
   inkscape:connector-curvature="0"
   style="fill:#dc0000;fill-opacity:1;stroke:#ffffff;stroke-width:16;stroke-opacity:1" />
<g
   id="g3001"
   transform="translate(0,798.39997)">
	
</g>
<g
   transform="scale(1.0003638,0.99963634)"
   style="font-size:737px;font-style:normal;font-variant:normal;font-weight:normal;font-stretch:normal;text-align:center;line-height:125%;letter-spacing:0px;word-spacing:0px;text-anchor:middle;fill:#ffffff;fill-opacity:1;stroke:none;font-family:Universalia;-inkscape-font-specification:Universalia"
   id="text2986"><path
     d="m 544.09329,349.75366 c -1.6e-4,5.27843 -0.18009,10.91629 -0.53979,16.91358 -0.36003,5.99814 -1.01977,12.47567 -1.97925,19.43261 l -32.3877,273.85596 -8.99658,0 L 468.522,386.09985 c -0.95972,-6.95694 -1.61947,-13.43447 -1.97924,-19.43261 -0.35995,-5.99729 -0.53988,-11.63515 -0.5398,-16.91358 -8e-5,-39.10466 13.07494,-58.65721 39.2251,-58.65771 25.91001,5e-4 38.86507,19.55305 38.86523,58.65771 z m -83.12842,408.08496 c -7e-5,-5.99768 1.13949,-11.63553 3.41871,-16.91357 2.27905,-5.27794 5.33788,-9.89618 9.17651,-13.85474 3.83845,-3.95843 8.39671,-7.07724 13.6748,-9.35644 5.27789,-2.27906 10.91574,-3.41863 16.91358,-3.4187 5.99759,7e-5 11.63544,1.13964 16.91357,3.4187 5.27785,2.2792 9.89609,5.39801 13.85474,9.35644 3.95834,3.95856 7.07715,8.5768 9.35644,13.85474 2.27897,5.27804 3.41854,10.91589 3.41871,16.91357 -1.7e-4,5.99775 -1.13974,11.6356 -3.41871,16.91358 -2.27929,5.278 -5.3981,9.83627 -9.35644,13.6748 -3.95865,3.83854 -8.57689,6.89738 -13.85474,9.17652 -5.27813,2.27912 -10.91598,3.41869 -16.91357,3.4187 -5.99784,-10e-6 -11.63569,-1.13958 -16.91358,-3.4187 -5.27809,-2.27914 -9.83635,-5.33798 -13.6748,-9.17652 -3.83863,-3.83853 -6.89746,-8.3968 -9.17651,-13.6748 -2.27922,-5.27798 -3.41878,-10.91583 -3.41871,-16.91358 z"
     style=""
     id="path2987" /></g>
</svg>